<?xml version="1.0" encoding="UTF-8" standalone="no"?>
<!DOCTYPE svg PUBLIC "-//W3C//DTD SVG 1.1//EN" "http://www.w3.org/Graphics/SVG/1.1/DTD/svg11.dtd"
[
<!ATTLIST g
  xmlns:vectornator CDATA #FIXED "http://vectornator.io"
  vectornator:layerName CDATA #IMPLIED >
<!ATTLIST g
  xmlns:vectornator CDATA #FIXED "http://vectornator.io"
  vectornator:mask CDATA #IMPLIED >
<!ATTLIST text
  xmlns:vectornator CDATA #FIXED "http://vectornator.io"
  vectornator:width CDATA #IMPLIED >
<!ATTLIST text
  xmlns:vectornator CDATA #FIXED "http://vectornator.io"
  vectornator:text CDATA #IMPLIED >

<!ATTLIST path
  xmlns:vectornator CDATA #FIXED "http://vectornator.io"
  vectornator:blendMode CDATA #IMPLIED >
<!ATTLIST path
  xmlns:vectornator CDATA #FIXED "http://vectornator.io"
  vectornator:shadowColor CDATA #IMPLIED >
<!ATTLIST path
  xmlns:vectornator CDATA #FIXED "http://vectornator.io"
  vectornator:shadowOpacity CDATA #IMPLIED >
<!ATTLIST path
  xmlns:vectornator CDATA #FIXED "http://vectornator.io"
  vectornator:shadowRadius CDATA #IMPLIED >
<!ATTLIST path
  xmlns:vectornator CDATA #FIXED "http://vectornator.io"
  vectornator:shadowOffset CDATA #IMPLIED >
<!ATTLIST path
  xmlns:vectornator CDATA #FIXED "http://vectornator.io"
  vectornator:shadowAngle CDATA #IMPLIED >

<!ATTLIST image
  xmlns:vectornator CDATA #FIXED "http://vectornator.io"
  vectornator:blendMode CDATA #IMPLIED >
<!ATTLIST image
  xmlns:vectornator CDATA #FIXED "http://vectornator.io"
  vectornator:shadowColor CDATA #IMPLIED >
<!ATTLIST image
  xmlns:vectornator CDATA #FIXED "http://vectornator.io"
  vectornator:shadowOpacity CDATA #IMPLIED >
<!ATTLIST image
  xmlns:vectornator CDATA #FIXED "http://vectornator.io"
  vectornator:shadowRadius CDATA #IMPLIED >
<!ATTLIST image
  xmlns:vectornator CDATA #FIXED "http://vectornator.io"
  vectornator:shadowOffset CDATA #IMPLIED >
<!ATTLIST image
  xmlns:vectornator CDATA #FIXED "http://vectornator.io"
  vectornator:shadowAngle CDATA #IMPLIED >

<!ATTLIST g
  xmlns:vectornator CDATA #FIXED "http://vectornator.io"
  vectornator:blendMode CDATA #IMPLIED >
<!ATTLIST g
  xmlns:vectornator CDATA #FIXED "http://vectornator.io"
  vectornator:shadowColor CDATA #IMPLIED >
<!ATTLIST g
  xmlns:vectornator CDATA #FIXED "http://vectornator.io"
  vectornator:shadowOpacity CDATA #IMPLIED >
<!ATTLIST g
  xmlns:vectornator CDATA #FIXED "http://vectornator.io"
  vectornator:shadowRadius CDATA #IMPLIED >
<!ATTLIST g
  xmlns:vectornator CDATA #FIXED "http://vectornator.io"
  vectornator:shadowOffset CDATA #IMPLIED >
<!ATTLIST g
  xmlns:vectornator CDATA #FIXED "http://vectornator.io"
  vectornator:shadowAngle CDATA #IMPLIED >

<!ENTITY % SVG.filter.extra.content  "| feDropShadow" >
<!ELEMENT feDropShadow EMPTY>
<!ATTLIST feDropShadow
  xmlns:svg CDATA #FIXED "http://www.w3.org/Graphics/SVG/1.1/DTD/svg11.dtd"
  dx CDATA #IMPLIED>
<!ATTLIST feDropShadow
  xmlns:svg CDATA #FIXED "http://www.w3.org/Graphics/SVG/1.1/DTD/svg11.dtd"
  dy CDATA #IMPLIED>
<!ATTLIST feDropShadow
  xmlns:svg CDATA #FIXED "http://www.w3.org/Graphics/SVG/1.1/DTD/svg11.dtd"
  stdDeviation CDATA #IMPLIED>
<!ATTLIST feDropShadow
  xmlns:svg CDATA #FIXED "http://www.w3.org/Graphics/SVG/1.1/DTD/svg11.dtd"
  flood-opacity CDATA #IMPLIED>
<!ATTLIST feDropShadow
  xmlns:svg CDATA #FIXED "http://www.w3.org/Graphics/SVG/1.1/DTD/svg11.dtd"
  in CDATA #IMPLIED>
<!ATTLIST feDropShadow
  xmlns:svg CDATA #FIXED "http://www.w3.org/Graphics/SVG/1.1/DTD/svg11.dtd"
  result CDATA #IMPLIED>
<!ATTLIST feDropShadow
  xmlns:svg CDATA #FIXED "http://www.w3.org/Graphics/SVG/1.1/DTD/svg11.dtd"
  flood-color CDATA #IMPLIED>
]
>
<!-- Created with Vectornator (http://vectornator.io/) -->
<svg height="100%" stroke-miterlimit="10" style="fill-rule:nonzero;clip-rule:evenodd;stroke-linecap:round;stroke-linejoin:round;" version="1.1" viewBox="0 0 841.995 595.35" width="100%" xml:space="preserve" xmlns="http://www.w3.org/2000/svg" xmlns:vectornator="http://vectornator.io" xmlns:xlink="http://www.w3.org/1999/xlink">
<defs/>
<g id="Layer-1" vectornator:layerName="Layer 1">
<path d="M223.414 332.636C223.414 292.581 255.972 260.11 296.135 260.11C336.297 260.11 368.855 292.581 368.855 332.636C368.855 372.691 336.297 405.163 296.135 405.163C255.972 405.163 223.414 372.691 223.414 332.636Z" fill="#a5a2a2" fill-rule="evenodd" opacity="1" stroke="none"/>
<path d="M296.687 340.239C296.687 332.1 305.022 325.501 315.304 325.501C325.585 325.501 333.92 332.1 333.92 340.239C333.92 348.379 325.585 354.977 315.304 354.977C305.022 354.977 296.687 348.379 296.687 340.239Z" fill="#a5a2a2" fill-rule="evenodd" opacity="1" stroke="none"/>
<path d="M272.364 331.349C272.364 321.496 279.657 313.508 288.653 313.508C297.65 313.508 304.943 321.496 304.943 331.349C304.943 341.202 297.65 349.189 288.653 349.189C279.657 349.189 272.364 341.202 272.364 331.349Z" fill="#a5a2a2" fill-rule="evenodd" opacity="1" stroke="none"/>
<path d="M321.057 288.189C321.057 249.431 352.476 218.012 391.234 218.012C429.991 218.012 461.41 249.431 461.41 288.189C461.41 326.946 429.991 358.365 391.234 358.365C352.476 358.365 321.057 326.946 321.057 288.189Z" fill="#a5a2a2" fill-rule="evenodd" opacity="1" stroke="none"/>
<path d="M363.933 307.45C363.933 301.9 365.358 297.4 367.116 297.4C368.873 297.4 370.298 301.9 370.298 307.45C370.298 313 368.873 317.499 367.116 317.499C365.358 317.499 363.933 313 363.933 307.45Z" fill="#a5a2a2" fill-rule="evenodd" opacity="1" stroke="none"/>
<path d="M430.606 315.837C430.606 280.317 459.401 251.522 494.921 251.522C530.441 251.522 559.236 280.317 559.236 315.837C559.236 351.357 530.441 380.152 494.921 380.152C459.401 380.152 430.606 351.357 430.606 315.837Z" fill="#a5a2a2" fill-rule="evenodd" opacity="1" stroke="none"/>
<path d="M520.031 373.104C520.031 347.759 548.076 327.213 582.671 327.213C617.266 327.213 645.311 347.759 645.311 373.104C645.311 398.449 617.266 418.996 582.671 418.996C548.076 418.996 520.031 398.449 520.031 373.104Z" fill="#a5a2a2" fill-rule="evenodd" opacity="1" stroke="none"/>
<path d="M477.154 399.567C477.154 391.057 493.576 384.158 513.834 384.158C534.091 384.158 550.513 391.057 550.513 399.567C550.513 408.077 534.091 414.976 513.834 414.976C493.576 414.976 477.154 408.077 477.154 399.567Z" fill="#a5a2a2" fill-rule="evenodd" opacity="1" stroke="none"/>
<path d="M416.188 300.094C289.092 300.094 186.062 333.145 186.062 373.938C186.063 399.498 223.652 427.159 282.969 444.25C287.543 444.821 291.971 445.945 296.125 447.688C297.736 448.088 299.515 448.397 301.156 448.781C304.266 448.694 307.326 448.704 310.875 449C315.696 449.402 320.681 449.806 325.969 450.219C331.658 450.663 343.772 451.532 356.094 452.438C369.995 451.525 382.848 450.782 395.062 450.312C402.565 450.024 407.658 450.442 417.312 451.719C419.425 451.998 420.215 452.11 421.156 452.219C422.287 452.35 423.635 452.469 423.656 452.469C423.808 452.465 424.051 452.434 424.375 452.406C425.257 452.33 428.785 451.856 428.875 451.844C434.368 451.087 437.128 450.776 441.188 450.562C446.803 450.267 450.416 450.511 457.375 451.219C459.193 451.404 459.867 451.463 460.438 451.5C462.518 451.364 465.097 451.004 469.281 450.281C470.226 450.118 471.036 449.967 472.781 449.656C484.605 447.55 490.155 446.777 498.188 446.5C502.992 446.334 507.034 446.887 510.938 447.719C512.837 447.431 514.655 447.259 516.438 447.219C519.121 447.158 521.738 447.419 524.406 447.781C595.963 431.188 646.312 401.417 646.312 373.938C646.313 333.145 543.283 300.094 416.188 300.094Z" fill="#a5a2a2" fill-rule="evenodd" opacity="1" stroke="none"/>
<path d="M487.203 323.696C487.203 305.288 509.324 290.366 536.612 290.366C563.9 290.366 586.021 305.288 586.021 323.696C586.021 342.103 563.9 357.026 536.612 357.026C509.324 357.026 487.203 342.103 487.203 323.696Z" fill="#a5a2a2" fill-rule="evenodd" opacity="1" stroke="none"/>
</g>
<g id="Layer-2" vectornator:layerName="Layer 2">
<g opacity="1">
<path d="M217.062 501.869C227.178 487.707 234.223 471.695 244.956 457.894" fill="#d8c8c8" fill-rule="evenodd" stroke="none"/>
<path d="M244.969 457.906C243.06 460.112 241.056 462.266 239.219 464.531C236.003 468.496 233.055 472.67 230.031 476.781C227.664 480 225.187 483.164 222.812 486.375C222.382 486.957 222.014 487.566 221.594 488.156C220.765 489.319 219.815 490.411 218.969 491.562C217.084 494.127 215.26 496.707 213.344 499.25C211.899 501.306 212.381 504.149 214.438 505.594C216.494 507.038 219.337 506.556 220.781 504.5C222.806 501.403 224.816 498.254 226.469 494.938C230.043 487.765 232.985 480.301 236.5 473.094C237.762 470.506 239.07 467.891 240.469 465.375C241.879 462.839 243.479 460.396 244.969 457.906Z" fill="#8684ff" stroke="none"/>
</g>
<g opacity="1">
<path d="M394.601 513.027C400.744 503.043 406.397 492.513 412.978 482.835C416.625 477.472 421.836 472.946 426.105 468.068" fill="#d8c8c8" fill-rule="evenodd" stroke="none"/>
<path d="M426.094 468.062C421.63 472.224 416.739 476.011 412.688 480.594C410.02 483.611 407.634 486.898 405.188 490.094C403.672 492.073 402.11 494.03 400.625 496.031C400.034 496.828 399.539 497.689 398.969 498.5C398.115 499.715 397.185 500.868 396.344 502.094C394.413 504.907 392.585 507.8 390.719 510.656C389.411 512.802 390.073 515.599 392.219 516.906C394.365 518.214 397.192 517.552 398.5 515.406C400.206 512.397 401.899 509.381 403.438 506.281C404.099 504.949 404.637 503.558 405.281 502.219C405.708 501.333 406.216 500.487 406.625 499.594C409.284 493.792 411.804 487.875 415.125 482.406C418.246 477.267 422.437 472.815 426.094 468.062Z" fill="#8684ff" stroke="none"/>
</g>
<g opacity="1">
<path d="M535.056 516.636C542.446 497.422 555.238 480.293 568.529 464.786" fill="#d8c8c8" fill-rule="evenodd" stroke="none"/>
<path d="M568.531 464.781C561.514 471.89 554.749 479.224 548.438 486.969C544.249 492.108 540.217 497.406 536.75 503.062C534.431 506.846 532.562 510.9 530.812 514.969C530.581 515.553 530.487 516.159 530.5 516.75C530.539 518.523 531.623 520.179 533.375 520.875C533.959 521.107 534.565 521.201 535.156 521.188C536.929 521.148 538.586 520.064 539.281 518.312C541.426 512.436 543.816 506.63 546.469 500.969C548.467 496.704 550.472 492.501 552.812 488.406C557.509 480.188 562.94 472.408 568.531 464.781Z" fill="#8684ff" stroke="none"/>
</g>
<g opacity="1">
<path d="M294.181 551.422C306.027 534.838 315.814 517.054 327.326 500.228" fill="#d8c8c8" fill-rule="evenodd" stroke="none"/>
<path d="M327.312 500.219C325.222 502.907 323.123 505.57 321.062 508.281C316.947 513.697 312.943 519.228 308.844 524.656C305.273 529.384 301.607 534.047 297.969 538.719C295.394 542.025 292.986 545.431 290.469 548.781C289.017 550.833 289.511 553.673 291.562 555.125C293.614 556.576 296.455 556.114 297.906 554.062C300.282 550.494 302.656 546.887 304.719 543.125C308.002 537.138 310.961 530.99 314.062 524.906C318.307 516.579 322.732 508.364 327.312 500.219Z" fill="#8684ff" stroke="none"/>
</g>
<g opacity="1">
<path d="M452.03 558.642C454.962 550.431 459.869 542.923 464.172 535.342C471.153 523.042 478.498 510.66 488.128 500.228" fill="#d8c8c8" fill-rule="evenodd" stroke="none"/>
<path d="M488.125 500.219C478.639 509.375 471.019 520.089 463.562 530.906C461.436 533.991 459.234 537.009 457.156 540.125C455.695 542.317 454.146 544.441 452.812 546.719C450.868 550.039 449.23 553.47 447.781 557.031C447.559 557.619 447.446 558.222 447.469 558.812C447.538 560.584 448.674 562.24 450.438 562.906C451.025 563.128 451.628 563.211 452.219 563.188C453.991 563.118 455.615 562.013 456.281 560.25C457.782 555.952 459.706 551.889 461.656 547.781C462.279 546.469 462.814 545.109 463.469 543.812C463.965 542.829 464.53 541.872 465 540.875C467.644 535.267 470.106 529.599 472.969 524.094C477.334 515.701 482.234 507.634 488.125 500.219Z" fill="#8684ff" stroke="none"/>
</g>
</g>
</svg>
