<?xml version="1.0" encoding="UTF-8" standalone="no"?>
<!DOCTYPE svg PUBLIC "-//W3C//DTD SVG 1.1//EN" "http://www.w3.org/Graphics/SVG/1.1/DTD/svg11.dtd"
[
<!ATTLIST g
  xmlns:vectornator CDATA #FIXED "http://vectornator.io"
  vectornator:layerName CDATA #IMPLIED >
<!ATTLIST g
  xmlns:vectornator CDATA #FIXED "http://vectornator.io"
  vectornator:mask CDATA #IMPLIED >
<!ATTLIST text
  xmlns:vectornator CDATA #FIXED "http://vectornator.io"
  vectornator:width CDATA #IMPLIED >
<!ATTLIST text
  xmlns:vectornator CDATA #FIXED "http://vectornator.io"
  vectornator:text CDATA #IMPLIED >

<!ATTLIST path
  xmlns:vectornator CDATA #FIXED "http://vectornator.io"
  vectornator:blendMode CDATA #IMPLIED >
<!ATTLIST path
  xmlns:vectornator CDATA #FIXED "http://vectornator.io"
  vectornator:shadowColor CDATA #IMPLIED >
<!ATTLIST path
  xmlns:vectornator CDATA #FIXED "http://vectornator.io"
  vectornator:shadowOpacity CDATA #IMPLIED >
<!ATTLIST path
  xmlns:vectornator CDATA #FIXED "http://vectornator.io"
  vectornator:shadowRadius CDATA #IMPLIED >
<!ATTLIST path
  xmlns:vectornator CDATA #FIXED "http://vectornator.io"
  vectornator:shadowOffset CDATA #IMPLIED >
<!ATTLIST path
  xmlns:vectornator CDATA #FIXED "http://vectornator.io"
  vectornator:shadowAngle CDATA #IMPLIED >

<!ATTLIST image
  xmlns:vectornator CDATA #FIXED "http://vectornator.io"
  vectornator:blendMode CDATA #IMPLIED >
<!ATTLIST image
  xmlns:vectornator CDATA #FIXED "http://vectornator.io"
  vectornator:shadowColor CDATA #IMPLIED >
<!ATTLIST image
  xmlns:vectornator CDATA #FIXED "http://vectornator.io"
  vectornator:shadowOpacity CDATA #IMPLIED >
<!ATTLIST image
  xmlns:vectornator CDATA #FIXED "http://vectornator.io"
  vectornator:shadowRadius CDATA #IMPLIED >
<!ATTLIST image
  xmlns:vectornator CDATA #FIXED "http://vectornator.io"
  vectornator:shadowOffset CDATA #IMPLIED >
<!ATTLIST image
  xmlns:vectornator CDATA #FIXED "http://vectornator.io"
  vectornator:shadowAngle CDATA #IMPLIED >

<!ATTLIST g
  xmlns:vectornator CDATA #FIXED "http://vectornator.io"
  vectornator:blendMode CDATA #IMPLIED >
<!ATTLIST g
  xmlns:vectornator CDATA #FIXED "http://vectornator.io"
  vectornator:shadowColor CDATA #IMPLIED >
<!ATTLIST g
  xmlns:vectornator CDATA #FIXED "http://vectornator.io"
  vectornator:shadowOpacity CDATA #IMPLIED >
<!ATTLIST g
  xmlns:vectornator CDATA #FIXED "http://vectornator.io"
  vectornator:shadowRadius CDATA #IMPLIED >
<!ATTLIST g
  xmlns:vectornator CDATA #FIXED "http://vectornator.io"
  vectornator:shadowOffset CDATA #IMPLIED >
<!ATTLIST g
  xmlns:vectornator CDATA #FIXED "http://vectornator.io"
  vectornator:shadowAngle CDATA #IMPLIED >

<!ENTITY % SVG.filter.extra.content  "| feDropShadow" >
<!ELEMENT feDropShadow EMPTY>
<!ATTLIST feDropShadow
  xmlns:svg CDATA #FIXED "http://www.w3.org/Graphics/SVG/1.1/DTD/svg11.dtd"
  dx CDATA #IMPLIED>
<!ATTLIST feDropShadow
  xmlns:svg CDATA #FIXED "http://www.w3.org/Graphics/SVG/1.1/DTD/svg11.dtd"
  dy CDATA #IMPLIED>
<!ATTLIST feDropShadow
  xmlns:svg CDATA #FIXED "http://www.w3.org/Graphics/SVG/1.1/DTD/svg11.dtd"
  stdDeviation CDATA #IMPLIED>
<!ATTLIST feDropShadow
  xmlns:svg CDATA #FIXED "http://www.w3.org/Graphics/SVG/1.1/DTD/svg11.dtd"
  flood-opacity CDATA #IMPLIED>
<!ATTLIST feDropShadow
  xmlns:svg CDATA #FIXED "http://www.w3.org/Graphics/SVG/1.1/DTD/svg11.dtd"
  in CDATA #IMPLIED>
<!ATTLIST feDropShadow
  xmlns:svg CDATA #FIXED "http://www.w3.org/Graphics/SVG/1.1/DTD/svg11.dtd"
  result CDATA #IMPLIED>
<!ATTLIST feDropShadow
  xmlns:svg CDATA #FIXED "http://www.w3.org/Graphics/SVG/1.1/DTD/svg11.dtd"
  flood-color CDATA #IMPLIED>
]
>
<!-- Created with Vectornator (http://vectornator.io/) -->
<svg height="100%" stroke-miterlimit="10" style="fill-rule:nonzero;clip-rule:evenodd;stroke-linecap:round;stroke-linejoin:round;" version="1.1" viewBox="0 0 841.995 595.35" width="100%" xml:space="preserve" xmlns="http://www.w3.org/2000/svg" xmlns:vectornator="http://vectornator.io" xmlns:xlink="http://www.w3.org/1999/xlink">
<defs/>
<g id="Layer-1" vectornator:layerName="Layer 1">
<path d="M231.542 199.464C231.542 151.241 270.739 112.148 319.09 112.148C367.442 112.148 406.639 151.241 406.639 199.464C406.639 247.687 367.442 286.779 319.09 286.779C270.739 286.779 231.542 247.687 231.542 199.464Z" fill="#d8c8c8" fill-rule="evenodd" opacity="1" stroke="none"/>
<path d="M319.756 208.617C319.756 198.817 329.79 190.873 342.168 190.873C354.547 190.873 364.581 198.817 364.581 208.617C364.581 218.416 354.547 226.36 342.168 226.36C329.79 226.36 319.756 218.416 319.756 208.617Z" fill="#d8c8c8" fill-rule="evenodd" opacity="1" stroke="none"/>
<path d="M290.473 197.913C290.473 186.051 299.253 176.435 310.084 176.435C320.914 176.435 329.695 186.051 329.695 197.913C329.695 209.776 320.914 219.392 310.084 219.392C299.253 219.392 290.473 209.776 290.473 197.913Z" fill="#d8c8c8" fill-rule="evenodd" opacity="1" stroke="none"/>
<path d="M349.095 145.952C349.095 99.2914 386.921 61.4652 433.582 61.4652C480.243 61.4652 518.069 99.2914 518.069 145.952C518.069 192.613 480.243 230.439 433.582 230.439C386.921 230.439 349.095 192.613 349.095 145.952Z" fill="#d8c8c8" fill-rule="evenodd" opacity="1" stroke="none"/>
<path d="M400.714 169.141C400.714 162.459 402.43 157.042 404.546 157.042C406.661 157.042 408.377 162.459 408.377 169.141C408.377 175.823 406.661 181.239 404.546 181.239C402.43 181.239 400.714 175.823 400.714 169.141Z" fill="#d8c8c8" fill-rule="evenodd" opacity="1" stroke="none"/>
<path d="M480.982 179.238C480.982 136.475 515.649 101.809 558.412 101.809C601.175 101.809 635.842 136.475 635.842 179.238C635.842 222.001 601.175 256.668 558.412 256.668C515.649 256.668 480.982 222.001 480.982 179.238Z" fill="#d8c8c8" fill-rule="evenodd" opacity="1" stroke="none"/>
<path d="M588.643 248.184C588.643 217.67 622.406 192.934 664.056 192.934C705.705 192.934 739.469 217.67 739.469 248.184C739.469 278.697 705.705 303.433 664.056 303.433C622.406 303.433 588.643 278.697 588.643 248.184Z" fill="#d8c8c8" fill-rule="evenodd" opacity="1" stroke="none"/>
<path d="M537.023 280.043C537.023 269.797 556.794 261.492 581.182 261.492C605.57 261.492 625.341 269.797 625.341 280.043C625.341 290.288 605.57 298.593 581.182 298.593C556.794 298.593 537.023 290.288 537.023 280.043Z" fill="#d8c8c8" fill-rule="evenodd" opacity="1" stroke="none"/>
<path d="M463.624 160.285C310.612 160.285 186.573 200.076 186.573 249.187C186.573 279.96 231.827 313.261 303.24 333.837C308.747 334.524 314.078 335.878 319.079 337.975C321.019 338.458 323.16 338.83 325.136 339.292C328.88 339.188 332.564 339.2 336.837 339.556C342.641 340.039 348.643 340.526 355.008 341.023C361.858 341.558 376.442 342.605 391.276 343.694C408.012 342.596 423.486 341.701 438.191 341.136C447.223 340.788 453.356 341.291 464.978 342.829C467.522 343.165 468.473 343.299 469.606 343.431C470.967 343.589 472.591 343.732 472.616 343.732C472.798 343.727 473.091 343.69 473.481 343.656C474.543 343.565 478.79 342.994 478.899 342.979C485.512 342.068 488.834 341.694 493.722 341.437C500.483 341.081 504.832 341.374 513.21 342.227C515.399 342.449 516.21 342.521 516.897 342.565C519.402 342.402 522.507 341.969 527.544 341.098C528.681 340.902 529.656 340.72 531.758 340.346C545.993 337.81 552.675 336.879 562.345 336.546C568.129 336.346 572.996 337.012 577.695 338.013C579.981 337.666 582.171 337.459 584.317 337.411C587.547 337.339 590.698 337.652 593.91 338.088C680.059 318.111 740.675 282.27 740.675 249.187C740.675 200.076 616.636 160.285 463.624 160.285Z" fill="#d8c8c8" fill-rule="evenodd" opacity="1" stroke="none"/>
<path d="M549.121 188.7C549.121 166.539 575.753 148.574 608.605 148.574C641.457 148.574 668.089 166.539 668.089 188.7C668.089 210.861 641.457 228.826 608.605 228.826C575.753 228.826 549.121 210.861 549.121 188.7Z" fill="#d8c8c8" fill-rule="evenodd" opacity="1" stroke="none"/>
<g opacity="1">
<path d="M219.562 335.969C217.758 336.115 216.01 336.738 214.531 337.969C214.159 338.278 214.014 338.764 213.75 339.156C209.364 342.063 207.517 348.295 207.562 353.25C207.573 354.449 207.661 355.669 207.906 356.844C208.215 358.323 208.744 359.708 209.531 361C212.005 365.058 217.686 366.719 222.125 366.781C222.561 366.787 222.975 366.624 223.406 366.594C223.575 366.586 223.738 366.669 223.906 366.656C224.256 366.63 224.563 366.457 224.906 366.406C225.371 366.32 225.855 366.359 226.312 366.219C226.638 366.119 226.933 365.936 227.25 365.812C227.638 365.68 228.059 365.703 228.438 365.531C229.433 365.079 230.255 364.32 231.125 363.656C231.136 363.647 231.145 363.634 231.156 363.625C231.703 363.205 232.362 362.928 232.844 362.438C234.343 360.911 235.165 359.082 235.75 357.062C235.76 357.031 235.771 357 235.781 356.969C235.836 356.775 235.919 356.603 235.969 356.406C235.999 356.286 236.002 356.153 236.031 356.031C236.925 354.439 237.584 352.741 237.625 350.938C237.637 350.39 237.43 349.837 237.344 349.281C237.206 346.448 235.855 343.735 233.781 341.656C233.482 341.318 233.145 341.025 232.812 340.719C232.673 340.605 232.55 340.483 232.406 340.375C230.663 338.896 228.56 337.901 226.188 337.594C225.762 337.369 225.383 337.059 224.938 336.875C223.219 336.165 221.367 335.823 219.562 335.969ZM214.438 360.438C215.046 361.17 215.64 361.906 216.406 362.469C216.253 362.402 216.087 362.353 215.938 362.281C215.358 361.731 214.866 361.112 214.438 360.438Z" fill="#ffffff" stroke="none"/>
</g>
<g opacity="1">
<path d="M685.438 345.219C678.02 345.557 672.977 353.04 672.844 360.125C672.797 362.632 673.484 365.021 674.781 367.094C674.81 367.176 674.813 367.262 674.844 367.344C675.471 369 676.641 370.318 678.031 371.469C677.802 372.723 678.045 374.053 678.906 375.125C679.387 375.708 679.537 374.939 679.375 375.719C679.306 376.051 679.869 376.215 680.125 376.438C680.61 376.858 681.179 377.238 681.75 377.531C682.963 378.154 684.268 378.435 685.594 378.438C686.919 378.44 688.255 378.15 689.5 377.656C689.661 377.592 689.779 377.445 689.938 377.375C691.87 376.87 693.575 375.832 695 374.438C695.048 374.416 695.108 374.429 695.156 374.406C699.735 372.239 701.778 366.821 701.469 362.031C701.022 355.101 696.315 347.712 689.438 345.688C688.149 345.308 686.78 345.158 685.438 345.219ZM686.312 362.844C686.734 362.888 687.133 362.943 687.531 363.125C688.677 363.648 689.774 364.954 689.281 366.281C688.914 367.271 687.973 368.163 687.125 368.75C687.098 368.769 687.059 368.763 687.031 368.781C686.804 368.516 686.607 368.215 686.5 368C686.229 367.453 686.08 366.838 685.969 366.219C685.867 365.34 685.954 364.416 686.062 363.5C686.12 363.239 686.168 362.986 686.312 362.844Z" fill="#ffffff" stroke="none"/>
</g>
<g opacity="1">
<path d="M445.562 453.719C444.473 453.651 443.651 454.234 442.906 455C442.172 455.106 441.439 455.281 440.719 455.688C438.309 457.047 437.662 459.58 437.031 462.062C436.724 463.27 436.413 464.449 436.25 465.688C436.072 467.037 435.954 468.455 435.938 469.844C435.887 474.01 436.88 478.063 440.844 480.438C441.61 480.896 442.427 481.273 443.281 481.531C444.451 481.884 445.688 482.043 446.906 482.094C447.001 482.098 447.092 482.06 447.188 482.062C447.221 482.065 447.248 482.091 447.281 482.094C448.565 482.189 449.869 482.058 451.125 481.781C451.207 481.764 451.263 481.706 451.344 481.688C451.354 481.685 451.365 481.69 451.375 481.688C451.867 481.613 452.313 481.429 452.781 481.281C452.997 481.205 453.226 481.18 453.438 481.094C453.486 481.074 453.515 481.02 453.562 481C454.331 480.677 455.017 480.247 455.656 479.719C456.337 479.297 457.096 479.001 457.688 478.469C458.557 477.687 459.302 476.802 459.875 475.781C460.891 473.973 461.211 472.074 461.062 470.219C461.694 468.548 462.24 466.903 461.969 465.062C461.528 462.075 458.483 459.438 456.094 457.969C454.133 456.763 451.929 455.867 449.656 455.469C449.513 455.444 449.363 455.458 449.219 455.438C448.106 454.55 446.896 453.801 445.562 453.719ZM445.5 454.469C446.165 454.529 446.821 454.933 447.469 455.312C447.096 455.311 446.744 455.367 446.375 455.406C445.542 455.121 444.705 454.974 443.844 454.969C444.345 454.621 444.889 454.413 445.5 454.469Z" fill="#ffffff" stroke="none"/>
</g>
<g opacity="1">
<path d="M272.125 440.75C270.728 440.851 269.363 441.184 268.094 441.781C266.765 442.407 265.7 443.324 264.75 444.344C260.571 446.362 257.977 451.445 258.656 455.938C258.66 455.961 258.684 455.977 258.688 456C258.616 456.311 258.474 456.626 258.469 456.938C258.441 458.674 259.435 460.341 261.094 461.125C261.708 461.926 262.288 462.756 263.062 463.406C264.866 464.92 267.05 466.02 269.312 466.656C271.194 467.185 273.179 467.381 275.125 467.156C276.633 466.982 278.07 466.531 279.406 465.812C283.453 463.637 285.429 459.726 285.625 455.594C285.719 453.613 285.379 451.587 284.688 449.688C284.657 449.606 284.657 449.518 284.625 449.438C283.87 447.469 282.69 445.638 281.156 444.156C279.91 442.953 278.444 441.999 276.812 441.406C275.312 440.861 273.717 440.635 272.125 440.75ZM268.375 452C268.526 452.016 268.694 452.037 268.844 452.062C268.997 452.088 269.131 452.117 269.281 452.156C269.685 452.262 270.096 452.402 270.469 452.594C270.594 452.659 270.702 452.725 270.812 452.812C270.848 452.841 270.87 452.862 270.906 452.906C271.146 454.123 269.21 454.82 268.375 454.594C268.22 454.552 268.085 454.446 267.938 454.375C267.856 454.21 267.79 454.044 267.719 453.875C267.747 453.428 267.742 452.983 267.844 452.531C267.991 452.346 268.156 452.177 268.344 452.031C268.355 452.022 268.359 452.007 268.375 452Z" fill="#ffffff" stroke="none"/>
</g>
<g opacity="1">
<path d="M632 431.344C627.22 430.819 624.094 435.235 623.062 439.375C622.723 440.737 622.53 442.213 622.5 443.75C622.46 445.816 622.792 447.913 623.344 449.938C623.364 455.029 625.027 460.487 630.625 461.594C631.379 461.743 632.141 461.785 632.906 461.75C633.441 461.725 633.973 461.597 634.5 461.5C635.107 461.535 635.702 461.655 636.344 461.531C638.6 461.097 640.142 459.474 641.375 457.625C642.392 456.495 643.242 455.206 643.844 453.781C644.383 453.281 644.956 452.793 645.375 452.188C646.478 450.594 647.048 448.883 647.156 447.125C647.381 443.458 645.659 439.723 643.125 436.844C642.925 436.549 642.811 436.185 642.562 435.938C642.277 435.653 641.849 435.639 641.5 435.469C640.8 434.847 640.17 434.096 639.406 433.625C638.005 432.761 636.543 431.853 634.875 431.656C634.426 431.603 634.046 431.776 633.625 431.812C633.082 431.664 632.562 431.405 632 431.344Z" fill="#ffffff" stroke="none"/>
</g>
<g opacity="1">
<path d="M356.781 369.375C355.3 369.174 353.779 369.392 352.312 370.156C349.653 371.542 348.056 374.277 347.219 377.062C347.187 377.168 347.186 377.269 347.156 377.375C345.711 380.203 344.705 383.384 344.625 386.562C344.591 387.903 344.728 389.234 345.031 390.531C346.805 398.112 354.661 401.361 361.812 399.219C365.88 398 368.916 395.075 370.281 391.219C370.55 390.801 370.958 390.493 371.156 390.031C371.596 389.007 371.859 387.892 371.938 386.781C372.068 384.945 371.716 383.109 371.125 381.375C369.209 375.753 363.697 369.464 357.312 369.531C357.133 369.495 356.962 369.4 356.781 369.375ZM355.438 379.719C355.881 379.817 356.331 380.018 356.719 380.125C357.229 380.266 357.737 380.375 358.25 380.5C358.523 380.897 358.833 381.252 359.031 381.75C359.233 382.256 359.405 382.798 359.469 383.344C359.437 383.338 359.409 383.351 359.375 383.344C358.829 383.227 358.196 383.089 357.719 382.781C357.075 382.367 356.593 381.615 356.031 381.094C355.931 381 355.822 380.904 355.719 380.812C355.64 380.742 355.458 380.612 355.25 380.438C355.27 380.347 355.227 380.279 355.25 380.188C355.291 380.025 355.389 379.881 355.438 379.719Z" fill="#ffffff" stroke="none"/>
</g>
<g opacity="1">
<path d="M533.438 367.969C529.74 367.954 526.377 370.166 524.125 372.969C522.95 374.431 522.061 376.131 521.375 377.938C520.455 378.536 519.587 379.265 518.875 380.188C518.215 381.043 517.698 381.992 517.312 383C516.879 384.134 516.608 385.347 516.562 386.562C516.268 394.435 525.278 400.189 532.656 398.906C533.776 398.852 534.859 398.509 535.875 397.906C538.504 397.64 540.996 396.629 542.656 394.344C544.136 392.308 544.38 390.017 543.938 387.812C544.977 385.6 545.652 383.217 545.688 380.781C545.774 374.864 542.386 370.153 536.75 368.5C535.677 368.185 534.56 367.973 533.438 367.969ZM533.906 376.531C534.575 376.697 535.268 376.971 535.812 377.406C536.071 377.613 536.177 377.92 536.344 378.188C535.257 377.611 534.11 377.131 532.906 376.781C532.877 376.747 532.874 376.69 532.844 376.656C533.194 376.562 533.549 376.443 533.906 376.531ZM531.5 385.219C531.627 385.423 531.799 385.595 531.906 385.812C532.199 386.411 532.386 387.055 532.531 387.719C531.93 388.03 531.302 388.256 530.844 388.156C530.832 388.043 530.815 387.931 530.812 387.812C530.797 387.167 530.96 386.506 531.188 385.906C531.225 385.807 531.271 385.722 531.312 385.625C531.338 385.565 531.441 385.344 531.5 385.219Z" fill="#ffffff" stroke="none"/>
</g>
<g opacity="1">
<path d="M358.531 375.125C355.805 374.572 352.926 376.821 352.281 379.438C351.989 380.622 352.125 381.891 352.625 383C352.29 385.682 353.204 388.974 356 389.969C356.735 390.23 357.547 390.293 358.312 390.156C360.67 389.736 361.963 387.755 362.812 385.719C363.278 384.604 363.712 383.476 363.719 382.25C363.736 379.225 361.679 375.764 358.531 375.125ZM356.344 382.062C356.148 382.173 355.966 382.369 355.781 382.5C355.697 382.56 355.432 382.703 355.5 382.625C355.73 382.36 356.023 382.187 356.344 382.062Z" fill="#ffffff" stroke="none"/>
</g>
<g opacity="1">
<path d="M531.469 378.312C529.251 378.058 526.92 379.302 525.719 381.156C524.675 382.768 523.934 384.845 524.656 386.719C525.29 388.364 527.335 390.248 529.281 390.375C529.93 390.417 530.549 390.26 531.125 389.844C531.833 389.332 532.274 388.394 532.5 387.406C533.327 387.214 534.148 386.876 534.781 386.219C535.653 385.314 536.053 384.164 536.031 383C536.01 381.836 535.561 380.685 534.656 379.812C534.189 379.419 534.123 380.176 534.188 379.406C534.217 379.056 533.596 379.001 533.281 378.844C532.721 378.563 532.09 378.384 531.469 378.312ZM530.562 385.406C530.624 385.357 530.758 385.522 530.844 385.625C530.605 385.952 530.455 386.35 530.125 386.562C529.954 386.673 529.743 386.794 529.531 386.812C529.466 386.818 529.29 386.843 529.312 386.781C529.419 386.487 529.96 386.501 530.188 386.406C530.518 386.269 530.289 385.623 530.562 385.406Z" fill="#ffffff" stroke="none"/>
</g>
<g opacity="1">
<path d="M687.938 355.656C686.177 355.446 684.403 356.301 683.469 357.938C682.561 361.769 682.301 362.84 682.531 361.75C682.759 360.67 683.018 359.595 683.156 358.5C683.181 358.307 682.966 358.86 682.875 359.031C682.78 359.21 682.689 359.384 682.594 359.562C682.38 359.963 682.155 360.368 681.969 360.781C681.352 362.147 680.964 363.619 680.969 365.125C680.972 366.204 681.23 367.238 681.469 368.281C682.021 370.692 682.966 372.984 685.75 373.438C686.096 373.494 686.463 373.499 686.812 373.469C687.494 373.41 688.019 373.235 688.625 372.938C690.128 372.201 691.129 370.818 691.938 369.406C692.181 368.982 692.447 368.596 692.594 368.125C692.84 367.338 692.926 366.438 692.938 365.531C692.949 364.625 692.868 363.706 692.812 362.906C692.747 361.952 692.711 361.158 692.312 360.281C692.228 360.094 691.975 360.016 691.844 359.844C691.729 358.394 691.015 356.994 689.656 356.219C689.111 355.907 688.524 355.726 687.938 355.656Z" fill="#ffffff" stroke="none"/>
</g>
<g opacity="1">
<path d="M527.438 367.719C525.438 368.038 523.471 368.541 521.75 369.656C520.511 370.459 519.694 371.45 518.875 372.656C518.044 373.881 517.512 375.088 517.156 376.531C515.519 383.179 518.979 388.743 524.188 392.562C521.811 389.092 519.507 383.963 522 379.938C522.436 379.234 522.968 378.715 523.594 378.188C524.003 377.842 524.305 377.536 524.812 377.344C525.957 376.911 527.129 376.774 528.344 376.75C530.844 376.498 532.658 374.282 532.406 371.781C532.155 369.281 529.938 367.467 527.438 367.719Z" fill="#ffffff" stroke="none"/>
</g>
<g opacity="1">
<path d="M526.719 368.344C525.567 368.17 524.355 368.442 523.344 369.188C521.522 370.686 519.931 372.409 518.969 374.594C518.405 375.874 518.228 377.159 518.062 378.531C517.795 380.753 518.378 382.958 519.25 385C521.497 390.261 526.405 394.442 532 395.656C530.963 395.055 529.958 394.368 529.094 393.531C528.234 392.699 527.454 391.805 526.781 390.812C524.789 387.873 523.645 384.108 524.969 380.688C525.104 380.338 525.136 380.006 525.344 379.688C526.191 378.385 527.449 377.315 528.75 376.5C530.773 375.009 531.179 372.179 529.688 370.156C528.942 369.145 527.87 368.518 526.719 368.344Z" fill="#ffffff" stroke="none"/>
</g>
<g opacity="1">
<path d="M676.688 351.969C675.526 352.056 674.413 352.61 673.594 353.562C671.474 356.33 670.322 359.177 670.781 362.688C670.878 363.429 670.893 364.158 671.125 364.875C672.62 369.488 676.993 373.5 681.906 373.438C682.608 373.429 683.314 373.342 684.031 373.156C685.564 372.76 686.895 371.945 688.125 370.969C686.136 371.654 683.983 371.974 681.969 371.188C679.064 370.054 677.415 366.894 678.031 363.875C678.102 363.531 678.064 363.176 678.188 362.844C678.662 361.572 679.508 360.406 680.469 359.469C682.107 357.563 681.906 354.7 680 353.062C679.047 352.244 677.849 351.881 676.688 351.969Z" fill="#ffffff" stroke="none"/>
</g>
<g opacity="1">
<path d="M681.625 348.812C679.86 348.645 678.083 349.529 677.188 351.188C675.446 354.729 674.005 358.635 674.312 362.656C674.421 364.078 674.601 365.629 675 367C675.547 368.879 676.537 370.644 677.688 372.219C678.444 373.254 679.269 374.314 680.375 375C681.461 375.673 682.87 375.974 684.125 376.125C690.266 376.864 695.667 371.744 696.656 365.875C696.874 364.581 696.849 363.352 696.656 362.062C696.441 365.71 694.624 369.105 691.5 371.094C689.496 372.369 686.917 372.921 684.688 371.906C684.222 371.694 683.526 371.364 683.219 370.938C683.018 370.659 682.949 370.283 682.812 369.969C682.292 368.772 681.999 367.488 681.938 366.188C681.872 364.807 681.911 363.82 682.25 362.469C682.88 359.96 683.853 357.727 685.188 355.5C686.381 353.289 685.555 350.537 683.344 349.344C682.791 349.045 682.213 348.868 681.625 348.812Z" fill="#ffffff" stroke="none"/>
</g>
<g opacity="1">
<path d="M677.344 358.125C674.847 357.839 672.599 359.629 672.312 362.125C672.212 364.942 672.234 367.677 673.406 370.312C673.885 371.389 674.674 372.306 675.562 373.062C679.799 376.671 686.342 374.085 690.312 371.375C687.706 371.881 684.81 372.097 682.25 371.219C681.499 370.961 680.192 370.406 680.062 369.469C680.003 369.039 680.195 368.721 680.25 368.312C680.315 367.825 680.431 367.421 680.562 366.938C680.898 365.707 681.099 364.439 681.344 363.188C681.63 360.691 679.84 358.411 677.344 358.125Z" fill="#ffffff" stroke="none"/>
</g>
<g opacity="1">
<path d="M677.5 360.281C674.988 360.237 672.92 362.237 672.875 364.75C672.992 367.282 672.754 369.925 673.688 372.344C674.225 373.736 675.294 375.139 676.406 376.156C678.165 377.765 680.439 377.908 682.688 377.875C684.401 377.85 686.06 377.802 687.719 377.312C692.468 375.913 695.079 371.709 696.438 367.219C694.314 370.415 691.292 373.673 687.125 373.5C686.081 373.457 685.132 373.162 684.156 372.812C683.499 372.577 682.059 372.251 681.625 371.656C681.535 371.534 681.553 371.194 681.562 371.156C681.579 371.089 681.355 370.785 681.344 370.688C681.307 370.367 681.475 369.892 681.5 369.562C681.62 368.006 681.861 366.465 681.969 364.906C682.013 362.394 680.012 360.326 677.5 360.281Z" fill="#ffffff" stroke="none"/>
</g>
<g opacity="1">
<path d="M628.156 435.562C626.388 435.689 624.796 436.841 624.188 438.625C623.799 440.158 623.301 441.696 623.188 443.281C623.107 444.406 623.251 445.614 623.469 446.719C624.106 449.953 627.156 453.218 630 454.688C631.109 455.261 632.393 455.687 633.656 455.656C635.274 455.617 636.621 454.674 638.031 454C636.822 454.053 635.443 454.399 634.25 454.031C633.281 453.733 632.544 453.042 631.938 452.25C631.513 451.695 631.137 451.053 630.875 450.406C630.499 449.479 630.211 448.448 630.312 447.438C630.34 447.162 630.452 446.992 630.531 446.75C630.625 446.465 630.591 446.159 630.688 445.875C630.842 445.42 631.227 444.999 631.438 444.562C631.915 443.571 632.348 442.575 632.781 441.562C633.593 439.184 632.316 436.593 629.938 435.781C629.343 435.578 628.746 435.52 628.156 435.562Z" fill="#ffffff" stroke="none"/>
</g>
<g opacity="1">
<path d="M630.469 434.719C629.304 434.701 628.121 435.125 627.219 436C624.701 438.695 621.82 441.132 621.312 445.031C620.862 448.49 621.549 451.6 623.75 454.344C625.951 457.087 629.386 458.819 632.844 458.719C633.996 458.685 635.136 458.437 636.25 457.969C637.176 457.579 638.057 457.075 638.781 456.375C640.953 454.274 641.257 451.125 641.562 448.281C641.562 448.281 636.136 444.413 637.562 445.406C638.987 446.399 640.213 447.663 641.281 449.031C641.451 449.249 641.099 449.554 641 449.812C640.607 450.838 640.171 451.846 639.594 452.781C637.741 455.783 633.736 456.355 630.875 454.344C629.083 453.084 628.101 451.045 628.375 448.875C628.436 448.395 628.428 447.951 628.625 447.5C629.046 446.534 629.737 445.736 630.531 445.062C631.064 444.611 631.621 444.198 632.156 443.75C632.39 443.554 632.552 443.067 632.844 443.156C634.506 443.665 632.864 443.152 633.562 442.531C635.367 440.782 635.405 437.898 633.656 436.094C632.782 435.192 631.633 434.737 630.469 434.719Z" fill="#ffffff" stroke="none"/>
</g>
<g opacity="1">
<path d="M630.156 433.625C628.993 433.687 627.839 434.19 627 435.125C623.919 438.691 620.306 442.437 620.719 447.531C620.83 448.909 621.325 450.263 621.969 451.562C622 451.727 621.986 451.902 622.031 452.062C622.412 453.419 623.252 454.678 624.219 455.688C625.523 457.05 627.26 457.938 629.062 458.5C632.124 459.966 635.55 460.358 638.562 458.75C644.684 455.481 643.654 446.416 641.25 441.125C640.836 440.214 640.347 439.357 639.781 438.531C638.185 436.199 635.691 434.253 632.844 434.438C632.017 433.898 631.098 433.574 630.156 433.625ZM634.562 439.875C635.088 440.555 635.51 441.344 635.719 441.812C636.767 444.17 637.177 447.013 636.719 449.562C636.528 450.624 636.149 451.692 635.25 452.344C634.612 452.806 633.407 452.001 632.781 451.562C631.506 450.67 630.384 449.497 629.688 448.094C629.536 447.79 629.387 447.441 629.375 447.094C629.345 446.177 630.126 445.247 630.656 444.594C631.621 443.405 632.739 442.339 633.781 441.219C634.142 440.817 634.37 440.348 634.562 439.875Z" fill="#ffffff" stroke="none"/>
</g>
<g opacity="1">
<path d="M268.062 448.25C266.301 448.453 264.749 449.692 264.219 451.5C264.007 452.332 264.726 451.974 264 452.312C263.689 452.457 263.862 453.004 263.812 453.344C263.764 453.674 263.743 454.011 263.719 454.344C263.622 455.672 263.681 457.052 264.031 458.344C265.227 462.756 270.097 464.966 273.938 462.156C277.589 459.484 277.448 454.074 274.781 450.781C273.61 449.335 271.776 448.332 269.875 448.406C269.272 448.229 268.65 448.182 268.062 448.25Z" fill="#ffffff" stroke="none"/>
</g>
</g>
</svg>
